<?xml version="1.0" encoding="UTF-8" standalone="no"?>
<svg
   xmlns:dc="http://purl.org/dc/elements/1.1/"
   xmlns:cc="http://creativecommons.org/ns#"
   xmlns:rdf="http://www.w3.org/1999/02/22-rdf-syntax-ns#"
   xmlns:svg="http://www.w3.org/2000/svg"
   xmlns="http://www.w3.org/2000/svg"
   xmlns:sodipodi="http://sodipodi.sourceforge.net/DTD/sodipodi-0.dtd"
   xmlns:inkscape="http://www.inkscape.org/namespaces/inkscape"
   version="1.0"
   width="1280pt"
   height="1204pt"
   viewBox="0 0 1280 1204"
   preserveAspectRatio="xMidYMid meet"
   id="svg8"
   sodipodi:docname="2051688.svg"
   inkscape:version="1.0.2 (e86c870879, 2021-01-15)"
   inkscape:export-filename="/home/felipe/Documents/portfolio/nestro.ico.png"
   inkscape:export-xdpi="5.4000001"
   inkscape:export-ydpi="5.4000001">
  <defs
     id="defs12" />
  <sodipodi:namedview
     pagecolor="#000000"
     bordercolor="#666666"
     borderopacity="1"
     objecttolerance="10"
     gridtolerance="10"
     guidetolerance="10"
     inkscape:pageopacity="0.8"
     inkscape:pageshadow="2"
     inkscape:window-width="2488"
     inkscape:window-height="1056"
     id="namedview10"
     showgrid="false"
     inkscape:zoom="0.49703294"
     inkscape:cx="753.46056"
     inkscape:cy="804.94042"
     inkscape:window-x="72"
     inkscape:window-y="0"
     inkscape:window-maximized="1"
     inkscape:current-layer="svg8"
     inkscape:document-rotation="0" />
  <metadata
     id="metadata2">
Created by potrace 1.15, written by Peter Selinger 2001-2017
<rdf:RDF>
  <cc:Work
     rdf:about="">
    <dc:format>image/svg+xml</dc:format>
    <dc:type
       rdf:resource="http://purl.org/dc/dcmitype/StillImage" />
    <dc:title></dc:title>
  </cc:Work>
</rdf:RDF>
</metadata>
  <path
     style="fill:#ececec;stroke-width:1.32766"
     d="M 951.69431,1054.7818 926.27224,1054.3104 812.27526,916.68515 C 351.0124,359.81635 357.58565,367.71898 355.65582,367.71898 c -0.96302,0 -1.15078,85.55092 -0.59784,272.39194 0.79047,267.11054 0.8587,272.56192 3.51794,281.15757 9.16404,29.62119 19.5389,37.60884 58.5159,45.05164 10.41968,1.98968 56.07387,7.72192 61.50089,7.72192 1.9036,0 1.58885,58.75045 -0.3363,62.77385 l -1.57894,3.2999 H 313.67775 150.678 l -1.73258,-2.915 c -1.22171,-2.0556 -1.87458,-11.7563 -2.21413,-32.8989 l -0.48152,-29.9839 6.58803,-0.77015 c 33.48472,-3.91496 42.29157,-5.12316 53.527,-7.34311 17.84206,-3.52543 32.87268,-8.47336 40.49472,-13.33053 7.46135,-4.75466 13.9751,-14.29103 18.28388,-26.76795 2.86896,-8.30756 2.92146,-10.26377 3.89405,-145.10296 1.33156,-184.60361 1.31125,-388.6712 -0.0448,-450.20784 -1.18346,-53.70382 -1.6875,-57.88765 -8.74766,-72.61059 -9.96982,-20.79059 -26.89556,-27.09864 -94.69667,-35.29246 l -18.36742,-2.21973 v -30.70571 c 0,-21.58518 0.46927,-31.15231 1.57985,-32.20922 1.17257,-1.11591 41.68418,-1.66743 157.14352,-2.13934 l 155.56365,-0.63583 23.91783,28.95837 c 34.99299,42.36754 313.88912,378.00502 378.78282,455.84607 30.59295,36.69681 61.48074,73.83089 68.63939,82.52017 7.15866,8.68928 13.72881,15.83109 14.60035,15.87062 0.99027,0.0451 1.91709,-3.45086 2.47125,-9.32087 0.48751,-5.16606 0.65892,-106.75433 0.38058,-225.75172 -0.47004,-201.04699 -0.67542,-217.04653 -2.90251,-226.07559 -3.65668,-14.82454 -9.79219,-26.46558 -17.36681,-32.95056 -11.99445,-10.26886 -43.65998,-17.76421 -93.92158,-22.23156 l -9.07384,-0.80649 -0.87782,-10.54867 c -0.48277,-5.80176 -0.37916,-20.16821 0.23026,-31.92544 l 1.10801,-21.37678 165.64695,-0.32905 165.647,-0.32905 v 32.39422 c 0,29.98318 -0.1772,32.39514 -2.3809,32.40668 -5.0297,0.0264 -39.6856,4.00583 -51.3608,5.89767 -42.4883,6.88478 -56.5323,16.20825 -65.2544,43.32122 -3.8341,11.91839 -4.5472,66.73575 -5.4016,415.22766 -0.4419,180.27746 -1.1822,336.61302 -1.645,347.41212 l -0.8413,19.635 -4.2454,0.7657 c -6.1342,1.1066 -46.39045,1.7371 -75.92609,1.1895 z"
     id="path11" />
</svg>
